<svg width="65" height="64" viewBox="0 0 65 64" fill="none" xmlns="http://www.w3.org/2000/svg">
<rect x="0.666992" width="64" height="64" rx="32" fill="#9CA3AF"/>
<path fill-rule="evenodd" clip-rule="evenodd" d="M25.167 22C25.167 20.0109 25.9572 18.1032 27.3637 16.6967C28.7702 15.2902 30.6779 14.5 32.667 14.5C34.6561 14.5 36.5638 15.2902 37.9703 16.6967C39.3768 18.1032 40.167 20.0109 40.167 22C40.167 23.9891 39.3768 25.8968 37.9703 27.3033C36.5638 28.7098 34.6561 29.5 32.667 29.5C30.6779 29.5 28.7702 28.7098 27.3637 27.3033C25.9572 25.8968 25.167 23.9891 25.167 22ZM18.9187 45.5083C18.9749 41.8991 20.4481 38.4568 23.0203 35.9243C25.5925 33.3918 29.0573 31.9724 32.667 31.9724C36.2766 31.9724 39.7415 33.3918 42.3137 35.9243C44.8859 38.4568 46.3591 41.8991 46.4153 45.5083C46.4197 45.7513 46.3531 45.9903 46.2237 46.196C46.0944 46.4017 45.9078 46.5653 45.687 46.6667C41.6023 48.5395 37.1606 49.5061 32.667 49.5C28.0237 49.5 23.612 48.4867 19.647 46.6667C19.4261 46.5653 19.2396 46.4017 19.1103 46.196C18.9809 45.9903 18.9143 45.7513 18.9187 45.5083Z" fill="black"/>
</svg>
